<?xml version="1.0" standalone="no"?>
<!DOCTYPE svg PUBLIC "-//W3C//DTD SVG 20010904//EN"
 "http://www.w3.org/TR/2001/REC-SVG-20010904/DTD/svg10.dtd">
<svg version="1.0" xmlns="http://www.w3.org/2000/svg"
 width="972.000000pt" height="972.000000pt" viewBox="0 0 972.000000 972.000000"
 preserveAspectRatio="xMidYMid meet">
<metadata>
Created by potrace 1.11, written by Peter Selinger 2001-2013
</metadata>
<g transform="translate(0.000000,972.000000) scale(0.100000,-0.100000)"
fill="#000000" stroke="none">
<path d="M3805 9693 c-22 -15 -96 -61 -165 -104 -69 -42 -221 -136 -338 -208
-117 -72 -214 -131 -217 -131 -2 0 -34 -17 -72 -39 -37 -21 -97 -54 -133 -73
-36 -20 -85 -47 -110 -61 -125 -69 -543 -299 -600 -329 -57 -31 -73 -35 -132
-33 -65 1 -69 3 -190 80 -356 229 -504 325 -515 334 -7 6 -14 11 -17 11 -3 0
-25 13 -48 29 -24 16 -77 51 -118 77 -41 26 -102 65 -135 87 -65 43 -71 43
-210 8 -40 -11 -224 -54 -568 -133 -131 -30 -189 -47 -192 -58 -2 -8 -7 -40
-10 -70 -6 -60 -14 -125 -20 -180 -18 -142 -20 -132 70 -446 47 -165 96 -324
109 -354 14 -30 142 -327 286 -660 145 -333 314 -723 376 -867 l113 -262 -15
-43 c-47 -125 -67 -180 -138 -367 l-78 -204 7 -106 c3 -58 8 -131 10 -161 2
-30 6 -95 10 -145 3 -49 7 -119 10 -155 11 -156 18 -267 18 -297 -1 -18 2 -33
6 -33 4 0 94 69 201 154 107 85 196 153 197 152 1 -1 5 -49 8 -106 3 -58 8
-132 10 -165 2 -33 7 -109 10 -170 3 -60 8 -137 10 -169 3 -33 7 -110 10 -170
3 -61 7 -133 10 -161 2 -27 7 -108 11 -180 4 -71 8 -141 9 -155 2 -14 3 -30 4
-36 1 -6 14 -30 29 -55 16 -24 150 -233 297 -464 148 -231 302 -472 343 -535
40 -63 77 -122 82 -130 5 -8 32 -73 61 -145 28 -71 59 -148 69 -170 9 -22 27
-67 40 -100 13 -34 111 -191 228 -365 113 -168 206 -306 207 -308 2 -2 28 -5
185 -17 41 -3 95 -8 120 -10 25 -2 83 -7 130 -10 l85 -6 130 -133 c134 -138
491 -508 603 -624 34 -36 136 -168 227 -292 l164 -227 58 -21 c355 -129 523
-184 541 -179 9 3 82 28 162 57 80 28 165 58 190 66 25 8 54 19 65 24 11 5 50
19 88 31 37 13 67 26 67 29 0 4 15 27 33 51 31 41 66 88 146 199 141 195 165
221 607 679 73 75 176 182 230 238 l99 102 90 6 c50 3 106 7 125 10 19 2 78 7
130 11 52 4 106 8 120 9 14 2 33 3 43 4 10 1 21 9 24 18 4 10 9 20 13 23 4 3
92 133 197 290 151 227 199 306 233 390 23 58 49 121 57 140 8 19 18 44 23 55
5 11 24 57 43 102 30 71 105 195 342 563 95 147 138 213 247 385 63 99 132
207 153 239 21 33 39 74 41 90 1 17 5 83 9 146 3 63 8 142 10 175 3 33 7 107
10 165 4 58 8 132 10 165 2 33 6 101 9 150 3 50 8 135 12 190 10 156 12 186
15 247 1 41 5 55 13 49 142 -110 354 -279 364 -288 19 -18 31 -16 30 4 0 10 3
61 6 113 8 107 13 182 21 320 4 52 8 115 10 140 4 55 18 291 17 305 0 6 -51
146 -115 313 l-114 303 94 217 c52 119 114 262 137 317 24 55 74 170 111 255
36 85 73 169 80 185 7 17 94 217 193 445 140 326 189 451 226 580 27 91 57
194 68 230 11 36 22 72 24 80 2 8 11 42 19 75 15 54 15 146 0 224 -1 9 -6 52
-11 96 -4 44 -9 83 -10 88 -1 4 -2 21 -3 37 -1 19 -6 30 -15 30 -8 0 -120 25
-248 55 -128 30 -244 56 -258 59 -14 2 -54 12 -90 21 -36 8 -74 18 -85 20 -11
3 -64 15 -117 26 l-97 22 -123 -79 c-68 -43 -175 -112 -238 -153 -63 -40 -137
-88 -165 -106 -27 -18 -97 -63 -155 -101 -58 -38 -109 -71 -115 -73 -5 -2 -57
-36 -115 -74 -103 -68 -107 -70 -173 -72 -74 -1 -88 4 -252 97 -44 25 -116 64
-160 88 -44 23 -93 51 -110 60 -33 19 -311 172 -415 228 -36 19 -71 39 -77 44
-7 6 -13 7 -13 4 0 -4 -6 -2 -12 4 -7 6 -185 116 -396 245 l-382 235 -1013 -1
-1012 0 -40 -26z"/>
</g>
</svg>
